<?xml version="1.0" standalone="no"?>
<!DOCTYPE svg PUBLIC "-//W3C//DTD SVG 20010904//EN"
 "http://www.w3.org/TR/2001/REC-SVG-20010904/DTD/svg10.dtd">
<svg version="1.0" xmlns="http://www.w3.org/2000/svg"
 width="64.000000pt" height="64.000000pt" viewBox="0 0 64.000000 64.000000"
 preserveAspectRatio="xMidYMid meet">

<g transform="translate(0.000000,64.000000) scale(0.100000,-0.100000)"
fill="#000000" stroke="none">
<path d="M70 525 c-21 -26 5 -45 61 -45 l49 0 0 -40 0 -40 135 0 c83 0 135 4
135 10 0 6 -48 10 -125 10 -77 0 -125 4 -125 10 0 6 67 10 180 10 l180 0 0
-34 c0 -30 -8 -39 -75 -90 l-74 -56 -104 0 c-106 0 -127 -7 -127 -42 0 -10 -9
-27 -20 -38 -25 -25 -25 -35 0 -60 25 -25 35 -25 60 0 13 13 33 20 60 20 27 0
47 -7 60 -20 25 -25 35 -25 60 0 25 25 25 35 0 60 -25 25 -35 25 -60 0 -43
-43 -140 -15 -140 40 0 19 7 20 104 20 l104 0 80 59 c80 59 92 75 92 115 0 43
-14 46 -202 46 l-178 0 0 28 c0 15 -5 33 -12 40 -17 17 -103 15 -118 -3z m110
-15 c0 -5 -22 -10 -50 -10 -27 0 -50 5 -50 10 0 6 23 10 50 10 28 0 50 -4 50
-10z m35 -360 c0 -18 -6 -26 -23 -28 -13 -2 -25 3 -28 12 -10 26 4 48 28 44
17 -2 23 -10 23 -28z m180 0 c0 -18 -6 -26 -23 -28 -24 -4 -38 18 -28 44 3 9
15 14 28 12 17 -2 23 -10 23 -28z"/>
<path d="M180 370 c0 -6 43 -10 110 -10 67 0 110 4 110 10 0 6 -43 10 -110 10
-67 0 -110 -4 -110 -10z"/>
<path d="M180 330 c0 -6 33 -10 80 -10 47 0 80 4 80 10 0 6 -33 10 -80 10 -47
0 -80 -4 -80 -10z"/>
<path d="M180 290 c0 -5 23 -10 50 -10 28 0 50 5 50 10 0 6 -22 10 -50 10 -27
0 -50 -4 -50 -10z"/>
</g>
</svg>
