<?xml version="1.0" standalone="no"?>
<!DOCTYPE svg PUBLIC "-//W3C//DTD SVG 20010904//EN"
 "http://www.w3.org/TR/2001/REC-SVG-20010904/DTD/svg10.dtd">
<svg version="1.0" xmlns="http://www.w3.org/2000/svg"
 width="200.000000pt" height="200.000000pt" viewBox="0 0 200.000000 200.000000"
 preserveAspectRatio="xMidYMid meet">

<g transform="translate(0.000000,200.000000) scale(0.100000,-0.100000)"
fill="#000000" stroke="none">
<path d="M0 1000 l0 -1000 1000 0 1000 0 0 1000 0 1000 -1000 0 -1000 0 0
-1000z m1010 445 c0 -30 31 -63 64 -69 18 -3 41 -13 52 -22 18 -14 18 -15 -6
-7 -14 4 -68 8 -120 8 -52 0 -106 -4 -120 -8 -24 -8 -24 -7 -6 7 11 9 34 19
52 22 33 6 64 39 64 69 0 8 5 15 10 15 6 0 10 -7 10 -15z m84 -121 c40 -15 7
-24 -94 -24 -98 0 -134 9 -97 23 18 8 172 8 191 1z m-104 -201 c0 -106 -4
-153 -10 -143 -5 8 -10 70 -10 137 0 113 -2 124 -22 143 l-22 20 32 0 32 0 0
-157z m62 137 c-20 -19 -22 -30 -22 -143 0 -67 -5 -129 -10 -137 -6 -10 -10
37 -10 143 l0 157 32 0 32 0 -22 -20z m-127 -36 c-9 -9 -18 -14 -21 -11 -9 9
6 27 22 27 13 0 13 -2 -1 -16z m175 -5 c0 -5 -4 -9 -10 -9 -5 0 -10 7 -10 16
0 8 5 12 10 9 6 -3 10 -10 10 -16z m-255 -101 c16 -4 26 0 29 11 3 9 4 5 3 -9
-2 -19 -9 -26 -32 -30 -47 -9 -90 3 -92 25 -2 11 0 15 3 9 2 -6 16 -9 29 -6
23 4 25 9 27 61 l2 56 3 -56 c4 -51 7 -57 28 -61z m370 0 c13 -3 27 0 29 6 3
6 5 2 3 -9 -3 -23 -44 -34 -92 -25 -23 4 -30 12 -32 30 -1 14 0 18 3 9 3 -11
13 -15 29 -11 22 4 25 10 27 56 l2 51 3 -51 c4 -46 7 -52 28 -56z m-278 -41
c-2 -23 -3 -1 -3 48 0 50 1 68 3 42 2 -26 2 -67 0 -90z m130 0 c-2 -23 -3 -1
-3 48 0 50 1 68 3 42 2 -26 2 -67 0 -90z m-347 -307 c0 -56 -3 -70 -15 -70
-12 0 -15 14 -15 70 0 56 3 70 15 70 12 0 15 -14 15 -70z m-50 45 c0 -10 -11
-15 -35 -15 -19 0 -35 -4 -35 -10 0 -5 14 -10 30 -10 20 0 30 -5 30 -15 0 -10
-10 -15 -30 -15 -16 0 -30 -4 -30 -10 0 -5 16 -10 35 -10 24 0 35 -5 35 -15 0
-11 -12 -15 -50 -15 l-50 0 0 65 0 65 50 0 c38 0 50 -4 50 -15z m164 -37 c20
-28 12 -38 -26 -38 -17 0 -28 -3 -24 -7 4 -5 16 -8 27 -8 29 0 23 -20 -7 -23
-30 -4 -64 22 -64 49 0 46 67 66 94 27z m136 -29 c0 -68 -34 -102 -84 -83 -28
11 -18 31 13 26 16 -2 32 1 36 9 6 9 2 11 -13 7 -44 -12 -82 48 -50 80 6 6 31
11 55 10 l43 -1 0 -48z m98 39 c7 -7 12 -29 12 -51 l0 -38 -42 3 c-38 3 -43 6
-43 28 0 20 6 26 30 31 22 4 26 8 14 13 -9 4 -20 6 -25 5 -18 -3 -25 1 -19 11
9 14 58 13 73 -2z m129 1 c19 -16 17 -89 -2 -89 -10 0 -15 11 -15 35 0 28 -4
35 -20 35 -16 0 -20 -7 -20 -35 0 -24 -5 -35 -15 -35 -11 0 -15 12 -15 48 l0
49 37 1 c20 1 42 -3 50 -9z m121 -7 c3 -9 -5 -12 -24 -10 -21 2 -29 -2 -32
-16 -5 -22 18 -39 34 -25 14 12 29 -5 19 -21 -9 -14 -58 -13 -73 2 -16 16 -15
61 0 76 16 16 70 11 76 -6z m106 2 c28 -27 20 -44 -21 -44 -20 0 -33 -3 -29
-7 4 -5 16 -8 27 -8 32 0 26 -20 -8 -23 -25 -3 -35 2 -49 22 -15 24 -15 28 0
51 19 29 56 33 80 9z m-810 -172 c3 -5 -4 -8 -16 -8 -31 1 -33 -21 -3 -28 18
-5 25 -12 23 -24 -4 -19 -35 -29 -50 -14 -6 6 0 8 16 5 34 -7 34 14 1 27 -38
15 -31 46 12 49 6 1 14 -3 17 -7z m59 -75 c18 -4 17 -5 -5 -6 -27 -1 -28 1
-26 47 l1 47 4 -42 c3 -33 8 -43 26 -46z m101 67 c19 -18 21 -45 4 -62 -39
-39 -100 17 -63 58 22 24 38 25 59 4z m96 6 c11 -7 8 -9 -14 -7 -36 3 -56 -24
-37 -47 18 -21 48 -20 54 2 4 15 5 15 6 0 1 -22 -15 -31 -44 -24 -32 8 -42 42
-19 67 19 21 32 23 54 9z m183 -23 c3 33 4 31 5 -12 l1 -50 -29 34 -29 34 -4
-34 c-3 -27 -4 -24 -5 15 l-2 49 29 -37 30 -37 4 38z m200 26 c-13 -2 -23 -11
-23 -19 0 -8 10 -15 23 -15 l22 -2 -22 -4 c-13 -2 -23 -11 -23 -18 0 -7 10
-16 23 -18 15 -4 12 -5 -8 -4 -25 2 -31 7 -33 30 -5 43 4 57 35 56 24 -2 25
-2 6 -6z m94 -5 c4 -7 8 -27 8 -45 0 -30 -1 -31 -19 -15 -14 13 -20 14 -23 5
-3 -7 -9 -13 -14 -13 -10 0 -12 63 -2 73 11 11 41 8 50 -5z m74 3 c-33 -9 -39
-31 -9 -32 l23 -2 -22 -4 c-32 -6 -29 -31 5 -36 25 -4 25 -4 -5 -6 -32 -1 -33
0 -33 37 0 46 5 52 39 51 l26 -1 -24 -7z m-465 -37 c8 -20 13 -39 10 -42 -3
-3 -6 0 -6 6 0 16 -43 15 -58 0 -17 -17 -15 -5 5 37 9 19 21 35 25 35 5 0 16
-16 24 -36z m199 6 c14 0 25 7 28 18 3 9 5 -3 4 -28 0 -25 -2 -35 -4 -22 -3
15 -11 22 -28 22 -17 0 -25 -7 -28 -22 -2 -13 -4 -3 -4 22 -1 25 1 37 4 28 3
-11 14 -18 28 -18z"/>
<path d="M775 770 c-4 -6 5 -10 20 -10 15 0 24 4 20 10 -3 6 -12 10 -20 10 -8
0 -17 -4 -20 -10z"/>
<path d="M894 765 c-7 -18 3 -35 21 -35 21 0 28 19 15 35 -16 19 -29 19 -36 0z"/>
<path d="M1020 730 c0 -5 7 -10 15 -10 8 0 15 5 15 10 0 6 -7 10 -15 10 -8 0
-15 -4 -15 -10z"/>
<path d="M1370 770 c0 -5 9 -10 21 -10 11 0 17 5 14 10 -3 6 -13 10 -21 10 -8
0 -14 -4 -14 -10z"/>
<path d="M720 596 c-27 -33 18 -72 48 -42 13 13 14 20 6 34 -15 23 -38 26 -54
8z"/>
<path d="M1310 591 c0 -15 6 -21 21 -21 25 0 22 33 -4 38 -12 2 -17 -3 -17
-17z"/>
<path d="M921 581 c-10 -18 -9 -21 9 -21 22 0 25 7 11 29 -7 11 -11 9 -20 -8z"/>
</g>
</svg>
